<svg width="18" height="20" viewBox="0 0 18 20" fill="none" xmlns="http://www.w3.org/2000/svg">
<path d="M1.41687 6.13883C1.41687 3.46754 1.41687 2.1319 2.36529 1.30203C3.3137 0.472168 4.84015 0.472168 7.89302 0.472168H10.0518C13.1047 0.472168 14.6312 0.472168 15.5796 1.30203C16.528 2.1319 16.528 3.46754 16.528 6.13883V14.6388H1.41687V6.13883Z" stroke="#A5A5A5" stroke-width="0.944444" stroke-linejoin="round"/>
<path d="M0.472229 14.6389H17.4722" stroke="#A5A5A5" stroke-width="0.944444" stroke-linecap="round"/>
<path d="M7.74301 3.8403C8.90486 3.67378 10.8301 3.7404 9.23674 5.33892C7.2451 7.33708 4.2577 11.8331 7.74301 10.3345C11.2284 8.83596 12.7223 9.83499 11.2286 11.3336" stroke="#A5A5A5" stroke-width="0.944444" stroke-linecap="round" stroke-linejoin="round"/>
<path d="M8.97255 14.6389V18.4167" stroke="#A5A5A5" stroke-width="0.944444" stroke-linecap="round"/>
<path d="M2.36151 19.3611L5.19484 14.6389" stroke="#A5A5A5" stroke-width="0.944444" stroke-linecap="round"/>
<path d="M15.583 19.3611L12.7497 14.6389" stroke="#A5A5A5" stroke-width="0.944444" stroke-linecap="round"/>
</svg>
