<svg width="17" height="17" viewBox="0 0 17 17" fill="none" xmlns="http://www.w3.org/2000/svg">
<path d="M8.44249 8.02382C8.8584 8.02382 9.24511 7.8572 10.0184 7.52397L10.5765 7.28348C11.9518 6.6909 12.6394 6.39459 12.6394 5.92536C12.6394 5.45613 11.9518 5.15983 10.5765 4.56721L10.0184 4.32675C9.24511 3.99352 8.8584 3.8269 8.44249 3.8269C8.02658 3.8269 7.63987 3.99352 6.86655 4.32675L6.30851 4.56721C4.93322 5.15983 4.24557 5.45613 4.24557 5.92536C4.24557 6.39459 4.93322 6.6909 6.30851 7.28348L6.86655 7.52397C7.63987 7.8572 8.02658 8.02382 8.44249 8.02382ZM8.44249 8.02382V13.0601" stroke="#A5A5A5" stroke-width="0.938134" stroke-linejoin="round"/>
<path d="M12.6394 5.92505V10.9613C12.6394 11.4306 11.9518 11.7269 10.5765 12.3195L10.0184 12.56C9.24511 12.8932 8.8584 13.0598 8.44249 13.0598C8.02658 13.0598 7.63987 12.8932 6.86655 12.56L6.30851 12.3195C4.93322 11.7269 4.24557 11.4306 4.24557 10.9613V5.92505" stroke="#A5A5A5" stroke-width="0.938134" stroke-linejoin="round"/>
<path d="M6.04615 0.468994C3.81589 0.519987 2.51321 0.73303 1.62316 1.62309C0.733107 2.51313 0.520063 3.81582 0.46907 6.04607M10.8402 0.468994C13.0706 0.519987 14.3732 0.73303 15.2633 1.62309C16.1533 2.51313 16.3663 3.81582 16.4173 6.04607M10.8402 16.4173C13.0706 16.3662 14.3732 16.1532 15.2633 15.2632C16.1533 14.3731 16.3663 13.0705 16.4173 10.8402M6.04615 16.4173C3.81589 16.3662 2.51321 16.1532 1.62316 15.2632C0.733107 14.3731 0.520063 13.0705 0.46907 10.8402" stroke="#A5A5A5" stroke-width="0.938134" stroke-linecap="round" stroke-linejoin="round"/>
</svg>
