<svg width="20" height="19" viewBox="0 0 20 19" fill="none" xmlns="http://www.w3.org/2000/svg">
<path d="M0.517288 7.96625C0.517288 7.24856 0.529821 6.54797 0.553685 5.87152C0.631648 3.66155 0.670633 2.55656 1.56951 1.65092C2.46839 0.74528 3.60459 0.696667 5.87697 0.599449C7.12371 0.546106 8.45122 0.517334 9.82844 0.517334C11.2056 0.517334 12.5331 0.546106 13.7799 0.599449C16.0523 0.696667 17.1885 0.74528 18.0873 1.65092C18.9862 2.55656 19.0252 3.66155 19.1032 5.87152C19.127 6.54797 19.1396 7.24856 19.1396 7.96625C19.1396 8.68396 19.127 9.38453 19.1032 10.061C19.0252 12.271 18.9862 13.3759 18.0873 14.2816C17.1885 15.1872 16.0523 15.2358 13.7798 15.333C13.0965 15.3623 12.3888 15.3842 11.6621 15.3979C10.972 15.411 10.627 15.4176 10.3238 15.5331C10.0206 15.6485 9.76559 15.8672 9.25533 16.3047L7.226 18.0448C7.10281 18.1504 6.94588 18.2085 6.78361 18.2085C6.40826 18.2085 6.10398 17.9042 6.10398 17.5289V15.3425C6.02802 15.3394 5.95234 15.3363 5.87696 15.333C3.60458 15.2358 2.46839 15.1872 1.56951 14.2815C0.670633 13.3759 0.631648 12.271 0.553685 10.061C0.529821 9.38453 0.517288 8.68396 0.517288 7.96625Z" stroke="#A5A5A5" stroke-width="1.03457" stroke-linecap="round" stroke-linejoin="round"/>
<path d="M14.4835 7.96595C14.4835 7.96595 12.5821 10.7593 9.82789 10.7593C7.07363 10.7593 5.17232 7.96595 5.17232 7.96595C5.17232 7.96595 7.03455 5.17261 9.82789 5.17261C12.6212 5.17261 14.4835 7.96595 14.4835 7.96595Z" stroke="#A5A5A5" stroke-width="1.03457" stroke-linecap="round" stroke-linejoin="round"/>
<path d="M9.82086 7.96582H9.82805" stroke="#A5A5A5" stroke-width="1.03457" stroke-linecap="round" stroke-linejoin="round"/>
</svg>
