<svg width="21" height="21" viewBox="0 0 21 21" fill="none" xmlns="http://www.w3.org/2000/svg">
<path d="M12.8788 8.83975C12.8788 10.4138 11.6029 11.6897 10.0288 11.6897C8.45478 11.6897 7.17883 10.4138 7.17883 8.83975C7.17883 7.26574 8.45478 5.98975 10.0288 5.98975C11.6029 5.98975 12.8788 7.26574 12.8788 8.83975Z" stroke="#A5A5A5" stroke-width="1.05556"/>
<path d="M17.6918 4.79512L17.2831 4.08307C16.9739 3.54457 16.8193 3.27531 16.5563 3.16794C16.2933 3.06057 15.9958 3.14529 15.4009 3.31474L14.3903 3.60044C14.0105 3.68835 13.612 3.63848 13.2651 3.45964L12.9862 3.29806C12.6888 3.10688 12.46 2.82501 12.3334 2.49368L12.0568 1.6646C11.875 1.11596 11.7841 0.841645 11.5676 0.684734C11.3511 0.527832 11.0636 0.527832 10.4885 0.527832H9.56526C8.99013 0.527832 8.70266 0.527832 8.48615 0.684734C8.26965 0.841645 8.17873 1.11596 7.9969 1.6646L7.72032 2.49368C7.5937 2.82501 7.36496 3.10688 7.06756 3.29806L6.78856 3.45964C6.44175 3.63848 6.04326 3.68835 5.66345 3.60044L4.65284 3.31474C4.05791 3.14529 3.76044 3.06057 3.49743 3.16794C3.23441 3.27531 3.07984 3.54457 2.77067 4.08307L2.36187 4.79512C2.07208 5.2999 1.92718 5.55229 1.9553 5.82097C1.98343 6.08964 2.1774 6.30615 2.56536 6.73919L3.41927 7.69738C3.62798 7.96256 3.77615 8.42471 3.77615 8.84024C3.77615 9.25596 3.62802 9.71794 3.4193 9.98318L2.56536 10.9414C2.17741 11.3745 1.98343 11.591 1.95531 11.8596C1.92718 12.1283 2.07209 12.3807 2.36188 12.8854L2.77066 13.5975C3.07982 14.136 3.23441 14.4052 3.49743 14.5127C3.76045 14.62 4.05792 14.5353 4.65285 14.3658L5.66341 14.0802C6.04329 13.9922 6.44186 14.0421 6.78871 14.221L7.06767 14.3826C7.365 14.5738 7.5937 14.8556 7.7203 15.1869L7.9969 16.0161C8.17873 16.5647 8.26965 16.839 8.48615 16.9959C8.70266 17.1528 8.99013 17.1528 9.56526 17.1528H10.4885C11.0636 17.1528 11.3511 17.1528 11.5676 16.9959C11.7841 16.839 11.875 16.5647 12.0568 16.0161L12.3335 15.1869C12.46 14.8556 12.6888 14.5738 12.986 14.3826L13.265 14.221C13.6119 14.0421 14.0104 13.9922 14.3903 14.0802L15.4009 14.3658C15.9958 14.5353 16.2933 14.62 16.5563 14.5127C16.8194 14.4052 16.9739 14.136 17.2831 13.5975L17.6918 12.8854C17.9817 12.3807 18.1266 12.1283 18.0984 11.8596C18.0703 11.591 17.8763 11.3745 17.4884 10.9414L16.6344 9.98318C16.4257 9.71794 16.2776 9.25596 16.2776 8.84024C16.2776 8.42471 16.4258 7.96256 16.6345 7.69738L17.4884 6.73919C17.8763 6.30615 18.0703 6.08964 18.0984 5.82097C18.1266 5.55229 17.9817 5.2999 17.6918 4.79512Z" stroke="#A5A5A5" stroke-width="1.05556" stroke-linecap="round"/>
<path d="M19.5278 15.7278C19.5278 16.6113 19.5278 17.053 19.4307 17.4155C19.1672 18.3989 18.3989 19.1672 17.4155 19.4307C17.0531 19.5278 16.6113 19.5278 15.7278 19.5278H4.3278C3.44433 19.5278 3.00259 19.5278 2.64016 19.4307C1.65666 19.1672 0.888441 18.3989 0.624911 17.4155C0.527802 17.053 0.527802 16.6113 0.527802 15.7278" stroke="#A5A5A5" stroke-width="1.05556" stroke-linecap="round"/>
</svg>
