<svg width="21" height="23" viewBox="0 0 21 23" fill="none" xmlns="http://www.w3.org/2000/svg">
<path d="M9.85242 11.2592C10.966 12.3727 12.4327 13.5044 12.4327 13.5044L14.4432 11.4938C14.4432 11.4938 13.3117 10.0271 12.1982 8.91349C11.0846 7.79995 9.61788 6.66835 9.61788 6.66835L7.60731 8.67893C7.60731 8.67893 8.73892 10.1456 9.85242 11.2592ZM9.85242 11.2592L6.33394 14.7777M14.7784 11.1586L12.0976 13.8394M9.95302 6.33325L7.27221 9.01405" stroke="#A5A5A5" stroke-width="1.05556" stroke-linecap="round" stroke-linejoin="round"/>
<path d="M19.5278 10.2213V7.15703C19.5278 5.42592 19.5278 4.56035 19.1012 3.99564C18.6747 3.43092 17.7102 3.15676 15.7813 2.60844C14.4634 2.23382 13.3017 1.7825 12.3735 1.37047C11.108 0.808715 10.4753 0.527832 10.0278 0.527832C9.58022 0.527832 8.94752 0.808715 7.68202 1.37047C6.75385 1.7825 5.59216 2.23381 4.27429 2.60844C2.34536 3.15676 1.38089 3.43092 0.954332 3.99564C0.527771 4.56035 0.527771 5.42592 0.527771 7.15703V10.2213C0.527771 16.159 5.87181 19.7215 8.54366 21.1316C9.18449 21.4698 9.50485 21.6389 10.0278 21.6389C10.5507 21.6389 10.8711 21.4698 11.5119 21.1316C14.1837 19.7215 19.5278 16.159 19.5278 10.2213Z" stroke="#A5A5A5" stroke-width="1.05556" stroke-linecap="round"/>
</svg>
