<svg width="21" height="21" viewBox="0 0 21 21" fill="none" xmlns="http://www.w3.org/2000/svg">
<path d="M8.47557 1.01134L2.97554 3.32713C1.7888 3.82681 1.19544 4.07665 0.861601 4.57943C0.527771 5.08221 0.527771 5.72603 0.527771 7.01368V19.5278H3.52777V9.52783C3.52777 8.58503 3.52777 8.11363 3.82066 7.82072C4.11356 7.52783 4.58496 7.52783 5.52777 7.52783H14.5278C15.4706 7.52783 15.942 7.52783 16.2349 7.82072C16.5278 8.11363 16.5278 8.58503 16.5278 9.52783V19.5278H19.5278V7.01368C19.5278 5.72603 19.5278 5.08221 19.194 4.57943C18.8601 4.07665 18.2668 3.82681 17.08 3.32713L11.58 1.01134C10.8145 0.689002 10.4317 0.527832 10.0278 0.527832C9.62387 0.527832 9.24107 0.689002 8.47557 1.01134Z" stroke="#A5A5A5" stroke-width="1.05556" stroke-linecap="round" stroke-linejoin="round"/>
</svg>
